<mxfile host="Electron" agent="Mozilla/5.0 (Macintosh; Intel Mac OS X 10_15_7) AppleWebKit/537.36 (KHTML, like Gecko) draw.io/24.7.5 Chrome/126.0.6478.183 Electron/31.3.0 Safari/537.36" version="24.7.5">
  <diagram id="C5RBs43oDa-KdzZeNtuy" name="Page-1">
    <mxGraphModel dx="880" dy="822" grid="1" gridSize="10" guides="1" tooltips="1" connect="1" arrows="1" fold="1" page="1" pageScale="1" pageWidth="827" pageHeight="1169" math="1" shadow="0">
      <root>
        <mxCell id="WIyWlLk6GJQsqaUBKTNV-0" />
        <mxCell id="WIyWlLk6GJQsqaUBKTNV-1" parent="WIyWlLk6GJQsqaUBKTNV-0" />
        <mxCell id="RK1e2ol13wnJMHTdH-v0-12" style="edgeStyle=orthogonalEdgeStyle;rounded=0;orthogonalLoop=1;jettySize=auto;html=1;" parent="WIyWlLk6GJQsqaUBKTNV-1" source="RK1e2ol13wnJMHTdH-v0-1" target="RK1e2ol13wnJMHTdH-v0-9" edge="1">
          <mxGeometry relative="1" as="geometry" />
        </mxCell>
        <mxCell id="RK1e2ol13wnJMHTdH-v0-13" value="&lt;pre style=&quot;background-image: none; background-position: initial; background-size: initial; background-repeat: initial; background-attachment: initial; background-origin: initial; background-clip: initial; text-shadow: white 0px 1px; text-align: left; word-break: normal; overflow-wrap: normal; line-height: 1.5; tab-size: 4; hyphens: none; overflow: auto; font-family: Courier, monospace; font-size: 13.3333px;&quot; tabindex=&quot;0&quot; class=&quot;language-r&quot;&gt;&lt;code style=&quot;background: none; text-shadow: white 0px 1px; word-spacing: normal; word-break: normal; overflow-wrap: normal; line-height: 1.5; tab-size: 4; hyphens: none; font-family: Courier, monospace;&quot; class=&quot;language-r&quot;&gt;s2x &amp;lt;- sigma2q&lt;span style=&quot;color: rgb(153, 153, 153);&quot; class=&quot;token punctuation&quot;&gt;(&lt;/span&gt;x&lt;span style=&quot;color: rgb(153, 153, 153);&quot; class=&quot;token punctuation&quot;&gt;,&lt;/span&gt; emb=m&lt;span style=&quot;color: rgb(153, 153, 153);&quot; class=&quot;token punctuation&quot;&gt;)&lt;/span&gt;&lt;/code&gt;&lt;/pre&gt;" style="edgeLabel;html=1;align=center;verticalAlign=middle;resizable=0;points=[];" parent="RK1e2ol13wnJMHTdH-v0-12" vertex="1" connectable="0">
          <mxGeometry x="-0.05" relative="1" as="geometry">
            <mxPoint as="offset" />
          </mxGeometry>
        </mxCell>
        <mxCell id="RK1e2ol13wnJMHTdH-v0-1" value="$$\mathbf x=(x_1,x_2,\dots,x_{n+m-1})$$&lt;div&gt;Time Series&lt;/div&gt;" style="rounded=1;whiteSpace=wrap;html=1;" parent="WIyWlLk6GJQsqaUBKTNV-1" vertex="1">
          <mxGeometry x="40" y="80" width="160" height="60" as="geometry" />
        </mxCell>
        <mxCell id="RK1e2ol13wnJMHTdH-v0-6" value="" style="edgeStyle=orthogonalEdgeStyle;rounded=0;orthogonalLoop=1;jettySize=auto;html=1;" parent="WIyWlLk6GJQsqaUBKTNV-1" source="RK1e2ol13wnJMHTdH-v0-2" target="RK1e2ol13wnJMHTdH-v0-5" edge="1">
          <mxGeometry relative="1" as="geometry" />
        </mxCell>
        <mxCell id="RK1e2ol13wnJMHTdH-v0-2" value="$$\mathbf \pi=(\pi_1,\pi_2,\dots,\pi_n)$$&lt;div&gt;Sequence of patterns with embedding dimension $$m$$&lt;/div&gt;" style="rounded=1;whiteSpace=wrap;html=1;" parent="WIyWlLk6GJQsqaUBKTNV-1" vertex="1">
          <mxGeometry x="400" y="50" width="130" height="120" as="geometry" />
        </mxCell>
        <mxCell id="RK1e2ol13wnJMHTdH-v0-5" value="$$H(\mathbf \pi)$$&lt;div&gt;Entropies and Shannon information measure&lt;/div&gt;" style="rounded=1;whiteSpace=wrap;html=1;" parent="WIyWlLk6GJQsqaUBKTNV-1" vertex="1">
          <mxGeometry x="697" y="70" width="130" height="80" as="geometry" />
        </mxCell>
        <mxCell id="RK1e2ol13wnJMHTdH-v0-3" value="" style="edgeStyle=orthogonalEdgeStyle;rounded=0;orthogonalLoop=1;jettySize=auto;html=1;" parent="WIyWlLk6GJQsqaUBKTNV-1" source="RK1e2ol13wnJMHTdH-v0-1" target="RK1e2ol13wnJMHTdH-v0-2" edge="1">
          <mxGeometry relative="1" as="geometry" />
        </mxCell>
        <mxCell id="RK1e2ol13wnJMHTdH-v0-4" value="&lt;pre style=&quot;background-color: rgb(247, 247, 247); border-radius: 3px; color: rgb(51, 51, 51); text-wrap: wrap; margin-top: 0px; margin-bottom: 0px; padding: 10px; overflow: visible; font-size: 14px; text-align: start;&quot; class=&quot;sourceCode r&quot;&gt;&lt;code style=&quot;text-wrap: nowrap; border-radius: 3px; font-family: Consolas, Monaco, &amp;quot;Courier New&amp;quot;, monospace; font-size: 11.9px; overflow: visible; position: relative;&quot; class=&quot;sourceCode r&quot;&gt;&lt;span style=&quot;color: inherit; text-decoration: inherit; line-height: 1.25;&quot; id=&quot;cb1-2&quot;&gt;&lt;span style=&quot;color: rgb(6, 40, 126);&quot; class=&quot;fu&quot;&gt;p &amp;lt;- OPprob(x, emb=m)&lt;/span&gt;&lt;/span&gt;&lt;/code&gt;&lt;/pre&gt;" style="edgeLabel;html=1;align=center;verticalAlign=middle;resizable=0;points=[];" parent="RK1e2ol13wnJMHTdH-v0-3" vertex="1" connectable="0">
          <mxGeometry x="-0.1583" relative="1" as="geometry">
            <mxPoint x="16" as="offset" />
          </mxGeometry>
        </mxCell>
        <mxCell id="RK1e2ol13wnJMHTdH-v0-8" value="&lt;pre style=&quot;background-color: rgb(247, 247, 247); border-radius: 3px; color: rgb(51, 51, 51); text-wrap: wrap; margin-top: 0px; margin-bottom: 0px; padding: 10px; overflow: visible; font-size: 14px; text-align: start;&quot; class=&quot;sourceCode r&quot;&gt;&lt;code style=&quot;text-wrap: nowrap; border-radius: 3px; font-family: Consolas, Monaco, &amp;quot;Courier New&amp;quot;, monospace; font-size: 11.9px; overflow: visible; position: relative;&quot; class=&quot;sourceCode r&quot;&gt;&lt;span style=&quot;color: inherit; text-decoration: inherit; line-height: 1.25;&quot; id=&quot;cb1-2&quot;&gt;&lt;span style=&quot;color: rgb(6, 40, 126);&quot; class=&quot;fu&quot;&gt;hs &amp;lt;- HShannon(x)&lt;/span&gt;&lt;/span&gt;&lt;/code&gt;&lt;/pre&gt;" style="edgeLabel;html=1;align=center;verticalAlign=middle;resizable=0;points=[];" parent="RK1e2ol13wnJMHTdH-v0-3" vertex="1" connectable="0">
          <mxGeometry x="-0.1583" relative="1" as="geometry">
            <mxPoint x="326" as="offset" />
          </mxGeometry>
        </mxCell>
        <mxCell id="RK1e2ol13wnJMHTdH-v0-9" value="$$\sigma^2(H(\mathbf \pi))$$&lt;div&gt;Asymptotic variance of the entropy&lt;/div&gt;" style="rounded=1;whiteSpace=wrap;html=1;" parent="WIyWlLk6GJQsqaUBKTNV-1" vertex="1">
          <mxGeometry x="55" y="210" width="130" height="80" as="geometry" />
        </mxCell>
        <mxCell id="RK1e2ol13wnJMHTdH-v0-17" value="" style="edgeStyle=orthogonalEdgeStyle;rounded=0;orthogonalLoop=1;jettySize=auto;html=1;" parent="WIyWlLk6GJQsqaUBKTNV-1" source="RK1e2ol13wnJMHTdH-v0-14" target="RK1e2ol13wnJMHTdH-v0-16" edge="1">
          <mxGeometry relative="1" as="geometry" />
        </mxCell>
        <mxCell id="RK1e2ol13wnJMHTdH-v0-18" value="&lt;pre style=&quot;background-image: none; background-position: initial; background-size: initial; background-repeat: initial; background-attachment: initial; background-origin: initial; background-clip: initial; text-shadow: white 0px 1px; text-align: left; word-break: normal; overflow-wrap: normal; line-height: 1.5; tab-size: 4; hyphens: none; overflow: auto; font-family: Courier, monospace; font-size: 13.3333px;&quot; tabindex=&quot;0&quot; class=&quot;language-r&quot;&gt;&lt;code style=&quot;background: none; text-shadow: white 0px 1px; word-spacing: normal; word-break: normal; overflow-wrap: normal; line-height: 1.5; tab-size: 4; hyphens: none; font-family: Courier, monospace;&quot; class=&quot;language-r&quot;&gt;entropicTest&lt;span style=&quot;color: rgb(153, 153, 153);&quot; class=&quot;token punctuation&quot;&gt;(&lt;/span&gt;&lt;span style=&quot;&quot; class=&quot;token punctuation&quot;&gt;x&lt;/span&gt;&lt;span style=&quot;color: rgb(153, 153, 153);&quot; class=&quot;token punctuation&quot;&gt;,&lt;/span&gt; y&lt;span style=&quot;color: rgb(153, 153, 153);&quot; class=&quot;token punctuation&quot;&gt;,&lt;/span&gt; emb=m&lt;span style=&quot;color: rgb(153, 153, 153);&quot; class=&quot;token punctuation&quot;&gt;,&lt;/span&gt; ent=&quot;S&quot;)&lt;/code&gt;&lt;/pre&gt;" style="edgeLabel;html=1;align=center;verticalAlign=middle;resizable=0;points=[];" parent="RK1e2ol13wnJMHTdH-v0-17" vertex="1" connectable="0">
          <mxGeometry x="-0.2778" y="1" relative="1" as="geometry">
            <mxPoint x="35" y="1" as="offset" />
          </mxGeometry>
        </mxCell>
        <mxCell id="RK1e2ol13wnJMHTdH-v0-14" value="&lt;div&gt;&lt;span style=&quot;background-color: initial;&quot;&gt;$$\mathbf x, \mathbf y$$&amp;nbsp;&lt;/span&gt;&lt;span style=&quot;background-color: initial;&quot;&gt;Time Series&lt;/span&gt;&lt;/div&gt;" style="rounded=1;whiteSpace=wrap;html=1;" parent="WIyWlLk6GJQsqaUBKTNV-1" vertex="1">
          <mxGeometry x="40" y="340" width="160" height="60" as="geometry" />
        </mxCell>
        <mxCell id="RK1e2ol13wnJMHTdH-v0-16" value="Result of applying the test that verifies if the time series have the patterns with same Shannon entropy&amp;nbsp;" style="rounded=1;whiteSpace=wrap;html=1;" parent="WIyWlLk6GJQsqaUBKTNV-1" vertex="1">
          <mxGeometry x="540" y="340" width="260" height="60" as="geometry" />
        </mxCell>
      </root>
    </mxGraphModel>
  </diagram>
</mxfile>
